<?xml version="1.0" encoding="utf-8"?>
<!-- Generator: Adobe Illustrator 24.0.0, SVG Export Plug-In . SVG Version: 6.00 Build 0)  -->
<svg version="1.1" id="图层_1" xmlns="http://www.w3.org/2000/svg" xmlns:xlink="http://www.w3.org/1999/xlink" x="0px" y="0px"
	 viewBox="0 0 200 200"  width="200" height="200" style="enable-background:new 0 0 200 200;" xml:space="preserve">
<style type="text/css">
	.st0{fill:url(#SVGID_1_);}
	.st1{fill:url(#SVGID_2_);}
	.st2{fill:url(#SVGID_3_);}
	.st3{fill:url(#SVGID_4_);}
</style>
<g id="加粗版_6_">
	<linearGradient id="SVGID_1_" gradientUnits="userSpaceOnUse" x1="186.3276" y1="159.721" x2="67.2211" y2="159.721">
		<stop  offset="0" style="stop-color:#00CEFF"/>
		<stop  offset="0.2104" style="stop-color:#08AEFF"/>
		<stop  offset="0.5706" style="stop-color:#147EFF"/>
		<stop  offset="0.8452" style="stop-color:#1B5FFF"/>
		<stop  offset="0.9997" style="stop-color:#1E54FF"/>
	</linearGradient>
	<path class="st0" d="M186.3,134.3l-0.6-0.3c-18.4-10.6-42-4.3-52.7,14.1l-2.5,4.3l-59-0.1l-4.3,18.8l16,19.6h58.4
		c6.9,0,13.3-3.4,17.1-9l0.1,0L186.3,134.3z"/>
	<linearGradient id="SVGID_2_" gradientUnits="userSpaceOnUse" x1="107.1508" y1="101.3245" x2="1" y2="101.3245">
		<stop  offset="0" style="stop-color:#00CEFF"/>
		<stop  offset="0.2104" style="stop-color:#08AEFF"/>
		<stop  offset="0.5706" style="stop-color:#147EFF"/>
		<stop  offset="0.8452" style="stop-color:#1B5FFF"/>
		<stop  offset="0.9997" style="stop-color:#1E54FF"/>
	</linearGradient>
	<path class="st1" d="M71.6,151.9L71.6,151.9l-0.1-0.2c0-0.1,0-0.1,0-0.1l0,0L41.8,99.8l29-52.4h0.3L50.3,11.8
		c-3.3,1.9-6.1,4.6-8,8.1L3.6,89.9c-3.5,6.3-3.4,14.1,0.2,20.3l39.4,68.8l0,0c0.4,0.7,0.8,1.5,1.3,2.3c4.7,8.3,15.5,9.4,15.5,9.4
		s43.7-0.3,47.2-0.3C90.1,190.6,73.2,155.2,71.6,151.9z"/>
	<linearGradient id="SVGID_3_" gradientUnits="userSpaceOnUse" x1="17.118" y1="47.5462" x2="195.1553" y2="47.5462">
		<stop  offset="0.1346" style="stop-color:#00CEFF"/>
		<stop  offset="0.3167" style="stop-color:#08AEFF"/>
		<stop  offset="0.6283" style="stop-color:#147EFF"/>
		<stop  offset="0.866" style="stop-color:#1B5FFF"/>
		<stop  offset="0.9997" style="stop-color:#1E54FF"/>
	</linearGradient>
	<path class="st2" d="M195.2,85.9l-38.8-66.5c-3.7-6.3-10.6-10.3-17.9-10.3H60.4c-0.7,0-1.3,0-2,0.1c-4.3,0.2-7.7,2-10.3,3.9
		c-2.4,1.8-4.4,4-5.9,6.7l-0.9,1.6l0.1,0l-6.7,12c0,0-9.7,17.4-17.6,31.9c11.5-20.6,48.1-18.3,53.1-18l0.5,0c0.1,0,0.1,0,0.1,0
		l0-0.1h57.5l19.5,33.4h-2L195.2,85.9z"/>
	<linearGradient id="SVGID_4_" gradientUnits="userSpaceOnUse" x1="199" y1="82.8795" x2="78.8764" y2="82.8795">
		<stop  offset="0" style="stop-color:#00CEFF"/>
		<stop  offset="0.2104" style="stop-color:#08AEFF"/>
		<stop  offset="0.5706" style="stop-color:#147EFF"/>
		<stop  offset="0.8452" style="stop-color:#1B5FFF"/>
		<stop  offset="0.9997" style="stop-color:#1E54FF"/>
	</linearGradient>
	<path class="st3" d="M196.9,89.1c-3.6-7-24.9-42.8-24.9-42.8s4.2,32.5-18.2,34.6h-5.5c-1.2-0.1-2.3-0.1-3.3,0H98.2
		c-10.6,0-19.3,8.6-19.3,19.3v0c0,10.6,8.6,19.3,19.3,19.3h64.3c1.2,0,1.7,0,3.4,0l13.5-0.3c0,0,9.4,0.3,16.5-9.2
		C199,104.9,200.5,96.1,196.9,89.1z"/>
</g>
</svg>
